<svg width="32" height="32" viewBox="116 4 32 32" fill="none" xmlns="http://www.w3.org/2000/svg">
<path d="M136 8H128V16H136V8Z" fill="#12499F"/>
<path d="M136 24H128V32H136V24Z" fill="#12499F"/>
<path d="M128 16H120V24H128V16Z" fill="#12499F"/>
<path d="M144 16H136V24H144V16Z" fill="#12499F"/>
<path d="M123.999 31.7841C126.089 31.7841 127.783 30.09 127.783 28.0001C127.783 25.9103 126.089 24.2161 123.999 24.2161C121.909 24.2161 120.215 25.9103 120.215 28.0001C120.215 30.09 121.909 31.7841 123.999 31.7841Z" fill="#12499F"/>
<path d="M139.999 31.7841C142.089 31.7841 143.783 30.09 143.783 28.0001C143.783 25.9103 142.089 24.2161 139.999 24.2161C137.909 24.2161 136.215 25.9103 136.215 28.0001C136.215 30.09 137.909 31.7841 139.999 31.7841Z" fill="#12499F"/>
<path d="M123.999 15.7841C126.089 15.7841 127.783 14.09 127.783 12.0001C127.783 9.91027 126.089 8.21612 123.999 8.21612C121.909 8.21612 120.215 9.91027 120.215 12.0001C120.215 14.09 121.909 15.7841 123.999 15.7841Z" fill="#12499F"/>
<path d="M139.999 15.7841C142.087 15.7841 143.783 14.0881 143.783 12.0001C143.783 9.91212 142.087 8.21612 139.999 8.21612C137.911 8.21612 136.215 9.91212 136.215 12.0001C136.215 14.0881 137.911 15.7841 139.999 15.7841Z" fill="#12499F"/>
</svg>
