<svg width="144" height="40" viewBox="0 0 144 40" fill="none" xmlns="http://www.w3.org/2000/svg">
<path d="M16 24H8V16H16V8H0V40H8V32H24V16H16V24Z" fill="#12499F"/>
<path d="M19.9988 15.7841C22.0868 15.7841 23.7828 14.0881 23.7828 12.0001C23.7828 9.91212 22.0868 8.21612 19.9988 8.21612C17.9108 8.21612 16.2148 9.91212 16.2148 12.0001C16.2148 14.0881 17.9108 15.7841 19.9988 15.7841Z" fill="#12499F"/>
<path d="M40 8H32V24H40V8Z" fill="#12499F"/>
<path d="M48 24H40V32H56V8H48V24Z" fill="#12499F"/>
<path d="M35.9988 31.7841C38.0887 31.7841 39.7828 30.09 39.7828 28.0001C39.7828 25.9103 38.0887 24.2161 35.9988 24.2161C33.909 24.2161 32.2148 25.9103 32.2148 28.0001C32.2148 30.09 33.909 31.7841 35.9988 31.7841Z" fill="#12499F"/>
<path d="M64 8V32H72V16H80V8H64Z" fill="#12499F"/>
<path d="M88 16H80V32H88V16Z" fill="#12499F"/>
<path d="M83.9988 15.7841C86.0868 15.7841 87.7829 14.0881 87.7829 12.0001C87.7829 9.91212 86.0868 8.21612 83.9988 8.21612C81.9108 8.21612 80.2148 9.91212 80.2148 12.0001C80.2148 14.0881 81.9108 15.7841 83.9988 15.7841Z" fill="#12499F"/>
<path d="M104 0H96V24H104V16H112V8H104V0Z" fill="#12499F"/>
<path d="M112 24H104V32H112V24Z" fill="#12499F"/>
<path d="M99.9988 31.7841C102.089 31.7841 103.783 30.09 103.783 28.0001C103.783 25.9103 102.089 24.2161 99.9988 24.2161C97.909 24.2161 96.2148 25.9103 96.2148 28.0001C96.2148 30.09 97.909 31.7841 99.9988 31.7841Z" fill="#12499F"/>
<path d="M136 8H128V16H136V8Z" fill="#12499F"/>
<path d="M136 24H128V32H136V24Z" fill="#12499F"/>
<path d="M128 16H120V24H128V16Z" fill="#12499F"/>
<path d="M144 16H136V24H144V16Z" fill="#12499F"/>
<path d="M123.999 31.7841C126.089 31.7841 127.783 30.09 127.783 28.0001C127.783 25.9103 126.089 24.2161 123.999 24.2161C121.909 24.2161 120.215 25.9103 120.215 28.0001C120.215 30.09 121.909 31.7841 123.999 31.7841Z" fill="#12499F"/>
<path d="M139.999 31.7841C142.089 31.7841 143.783 30.09 143.783 28.0001C143.783 25.9103 142.089 24.2161 139.999 24.2161C137.909 24.2161 136.215 25.9103 136.215 28.0001C136.215 30.09 137.909 31.7841 139.999 31.7841Z" fill="#12499F"/>
<path d="M123.999 15.7841C126.089 15.7841 127.783 14.09 127.783 12.0001C127.783 9.91027 126.089 8.21612 123.999 8.21612C121.909 8.21612 120.215 9.91027 120.215 12.0001C120.215 14.09 121.909 15.7841 123.999 15.7841Z" fill="#12499F"/>
<path d="M139.999 15.7841C142.087 15.7841 143.783 14.0881 143.783 12.0001C143.783 9.91212 142.087 8.21612 139.999 8.21612C137.911 8.21612 136.215 9.91212 136.215 12.0001C136.215 14.0881 137.911 15.7841 139.999 15.7841Z" fill="#12499F"/>
</svg>
